<mxfile host="app.diagrams.net" agent="Mozilla/5.0 (Windows NT 10.0; Win64; x64; rv:133.0) Gecko/20100101 Firefox/133.0" version="26.0.5">
  <diagram name="Страница — 1" id="OSdip_R_SAVRn6R-MpI1">
    <mxGraphModel dx="989" dy="539" grid="1" gridSize="10" guides="1" tooltips="1" connect="1" arrows="1" fold="1" page="1" pageScale="1" pageWidth="827" pageHeight="1169" math="0" shadow="0">
      <root>
        <mxCell id="0" />
        <mxCell id="1" parent="0" />
        <mxCell id="1n0cMs4RUWe2Yb6LNVbh-1" value="Actor" style="shape=umlActor;verticalLabelPosition=bottom;verticalAlign=top;html=1;outlineConnect=0;" vertex="1" parent="1">
          <mxGeometry x="140" y="170" width="30" height="60" as="geometry" />
        </mxCell>
        <mxCell id="1n0cMs4RUWe2Yb6LNVbh-2" value="Перейти в &quot;Мою музыку&quot;" style="ellipse;whiteSpace=wrap;html=1;" vertex="1" parent="1">
          <mxGeometry x="300" y="80" width="120" height="80" as="geometry" />
        </mxCell>
        <mxCell id="1n0cMs4RUWe2Yb6LNVbh-3" value="Перейти в &quot;Мои плейлисты&quot;" style="ellipse;whiteSpace=wrap;html=1;" vertex="1" parent="1">
          <mxGeometry x="300" y="190" width="120" height="80" as="geometry" />
        </mxCell>
        <mxCell id="1n0cMs4RUWe2Yb6LNVbh-4" value="Выбрать плейлист" style="ellipse;whiteSpace=wrap;html=1;" vertex="1" parent="1">
          <mxGeometry x="480" y="190" width="120" height="80" as="geometry" />
        </mxCell>
        <mxCell id="1n0cMs4RUWe2Yb6LNVbh-6" value="" style="endArrow=classic;html=1;rounded=0;entryX=1;entryY=0.5;entryDx=0;entryDy=0;exitX=0;exitY=0.5;exitDx=0;exitDy=0;" edge="1" parent="1" source="1n0cMs4RUWe2Yb6LNVbh-4" target="1n0cMs4RUWe2Yb6LNVbh-3">
          <mxGeometry width="50" height="50" relative="1" as="geometry">
            <mxPoint x="460" y="320" as="sourcePoint" />
            <mxPoint x="510" y="270" as="targetPoint" />
          </mxGeometry>
        </mxCell>
      </root>
    </mxGraphModel>
  </diagram>
</mxfile>
